<svg width="154" height="154" viewBox="0 0 154 154" fill="none" xmlns="http://www.w3.org/2000/svg">
<path d="M77.0002 121.917C76.9965 114.338 78.9117 106.883 82.5671 100.244C86.2225 93.6062 91.4992 88.0015 97.9053 83.9529C104.311 79.9043 111.638 77.5436 119.203 77.0907C126.767 76.6379 134.324 78.1078 141.167 81.3633V38.5C141.167 31.4417 135.392 25.6667 128.333 25.6667H25.6668C18.6085 25.6667 12.8335 31.4417 12.8335 38.5V115.5C12.8335 122.558 18.6085 128.333 25.6668 128.333H77.5135C77.1927 126.216 77.0002 124.098 77.0002 121.917ZM25.6668 38.5L77.0002 70.5833L128.333 38.5V51.3333L77.0002 83.4167L25.6668 51.3333V38.5ZM111.265 141.167L88.5502 118.452L97.5977 109.404L111.201 123.007L138.408 95.8008L147.583 104.848L111.265 141.167Z" fill="#1DBEB4"/>
</svg>
